Patient4_TMGait_0pt6_01_right_19_EMG.mot
version=1
nRows=36
nColumns=33
inDegrees=no
endheader
time	1LAddLong	2LGlutMax	3LGlutMed	4LIliopsoas	5LSemiMemb	6LBicFemLong	7LRecFem	8LVastMed	9LVastLat	10LGasMed	11LTibAnt	12lTibPost	13LPeroneusLong	14LSol	15LExtDigLong	16LFlexDigLong	17RAddLong	18RGlutMax	19RGlutMed	20RIliopsoas	21RSemiMemb	22RBicFemLong	23RRecFem	24RVastMed	25RVastLat	26RGasMed	27RTibAnt	28RTibPost	29RPeroneusLong	30RSol	31RExtDigLong	32RFlexDigLong
23.775	-0.001831	0.066071	0.13001	0.008698	0.062256	0.033264	0.17288	-0.011139	-0.012512	-0.046082	-0.025482	0.013428	-0.074921	0.1239	0.018463	-0.032349	0.042267	0.010376	-0.14542	-0.015717	-0.1651	0.079346	-0.014343	-0.024719	0.00351	-0.001068	0.30289	0.001831	0.02533	0.003204	-0.007172	-0.035706
23.776	-0.004425	0.058746	0.10727	0.012054	-0.010529	0.009613	0.17319	-0.012054	-0.028381	-0.062408	-0.050659	0.009155	-0.032349	0.18265	-0.083313	-0.018921	0.065308	0.036316	-0.2298	0.042267	-0.28915	0.030823	0.003815	-0.049286	-0.016022	0.001373	0.007935	-0.000153	0.31036	0.007172	-0.002594	-0.040436
23.777	-0.006104	0.047607	0.058289	0.020447	-0.046692	0.048676	0.17578	-0.012207	-0.066223	-0.063019	0.070801	-0.011902	0.026245	0.18448	0.009613	-0.017395	0.047913	0.058594	-0.27512	0.075378	-0.40771	0.031738	-0.007477	-0.073395	-0.016327	0.006409	0.16434	0.006256	0.40939	-0.065918	-0.006256	-0.05127
23.778	-0.002136	0.01709	0.081329	0.010376	-0.077515	0.053253	0.18585	-0.015106	-0.053406	-0.043335	0.059357	-0.001984	0.023651	0.21088	0.19257	-0.013733	0.010986	0.062714	-0.25864	0.033569	-0.090942	0.060425	0.021057	0.004425	0.001831	-0.001984	0.21637	0.003815	0.10468	-0.043182	0.002594	-0.055237
23.779	0.007782	-0.003357	0.059509	-0.002289	0.003357	0.007019	0.18326	-0.010986	-0.023956	-0.06424	0.15106	-0.007935	-0.061951	0.15182	0.20783	-0.004578	-0.016632	0.056152	-0.45044	-0.053558	0.28442	0.073242	-0.081177	0.045166	0.003815	-0.007324	0.097809	0.006866	-0.3743	-0.072937	-0.001526	-0.061646
23.78	0.017242	0.002899	0.09079	-0.003357	0.078278	-0.090332	0.1973	-0.010681	0.038147	-0.067749	0.26794	0.001373	-0.11231	0.089417	0.57571	-0.013123	-0.014954	0.036774	-0.27939	-0.054932	0.26321	0.086517	-0.018158	-0.014038	0.007629	-0.009003	0.1445	-0.002136	-0.43549	-0.059357	-0.001678	-0.067139
23.781	0.017242	-0.016785	0.19134	-0.00473	0.029602	-0.11932	0.21729	-0.011444	0.14297	-0.063782	0.12909	0.005951	-0.075684	0.038452	-0.20905	-0.002594	0.002594	0.047913	0.35477	-0.058746	0.22385	0.055084	-0.024719	0.000305	-0.012054	-0.013428	0.12604	0.00061	-0.18707	0.006256	-0.001221	-0.057983
23.782	0.023346	-0.059814	0.15686	-0.002441	0.065613	-0.13489	0.24765	-0.014191	0.057678	-0.034027	0.028687	-0.006256	-0.056152	-0.017395	-0.22507	-0.037384	-0.017395	0.021973	0.17609	0.056458	0.19592	0.005646	-0.027771	0.022888	0.006256	-0.014954	0.1712	0.006256	0.099487	0.030823	-0.001984	-0.043945
23.783	0.01236	-0.03006	0.14603	0.020599	0.056	-0.072937	0.2742	-0.011139	0.027466	0.036469	-0.04837	0.009003	-0.009766	0.000763	-0.27283	-0.098114	-0.008087	0.011444	-0.11581	0.10071	0.14832	-0.021667	-0.015259	0.014038	-0.000916	-0.010376	-0.001221	0.00061	0.18249	0.013275	0.001373	-0.033264
23.784	0.017395	-0.052948	0.15533	0.013733	0.026703	-0.01236	0.16312	0.00061	-0.001373	0.12604	-0.10712	0.005951	0.074768	0.00824	-0.25894	0.028839	0.018768	-0.011292	-0.28717	0.049286	0.047302	-0.020447	-0.034485	-0.011902	0.021973	-0.007019	-0.093079	0.003204	0.12695	-0.005341	-0.000763	-0.022583
23.785	0.017395	-0.06424	0.1358	0.013885	0.012054	-0.00061	0.14877	0.00061	0.006866	0.18158	-0.062714	-0.007629	0.095062	0.07782	-0.15411	-0.059662	0.057831	-0.044861	-0.19898	0.003815	-0.011444	0.013885	-0.012665	-0.020599	0.022583	-0.013275	-0.005035	0.002594	0.088806	-0.003662	-0.001068	-0.017548
23.786	0.016632	-0.077362	0.1619	0.005341	0.003815	0.006409	0.15274	0.00824	-0.055389	0.17853	0.063934	-0.000763	0.15595	0.028839	-0.080261	-0.076904	0.076904	-0.03067	-0.1413	-0.002136	-0.068054	0.000153	0.011749	-0.068207	0.025787	-0.018616	-0.096741	0.011749	0.10849	-0.013275	-0.002136	-0.014343
23.787	0.014496	-0.034637	0.15778	0.010223	0.014496	0.007172	0.12528	0.013275	-0.13351	0.12024	-0.016937	0.005188	0.16449	0.01358	-0.098114	0.28153	0.06897	-0.040283	0.12116	-0.025177	0.018005	-0.048676	-0.027924	-0.056152	0.034027	-0.002136	-0.086823	0.005646	0.042725	-0.049591	-0.001068	-0.011597
23.788	0.009766	-0.045319	0.1416	0.001984	0.006561	-0.009613	0.10407	0.011139	-0.14084	-0.055084	-0.057831	0.002594	0.014191	0.007782	-0.016479	0.11978	0.077209	-0.054169	0.19379	0.050659	0.035248	-0.095215	-0.018311	-0.024261	0.035706	-0.005646	-0.11368	0.00473	-0.13596	-0.02182	-0.002899	-0.007629
23.789	0.004272	-0.090637	0.023804	0.012512	0.005035	0.007782	0.14725	0.018921	-0.001221	-0.14816	-0.043488	0.007172	0.13733	-0.013275	-0.010681	-0.14511	0.10803	-0.098724	0.066528	0.095367	0.071411	-0.11124	-0.032043	-0.11475	0.047607	-0.010071	-0.10941	0.017853	-0.23911	-0.00885	-0.001373	-0.001678
23.79	0.005493	-0.090942	0.04364	0.001984	0.005341	0.002747	0.13031	0.008545	0.1265	-0.10254	-0.177	-0.010223	0.75455	0.032654	-0.065155	-0.10208	-0.005493	-0.090332	0.028839	0.080872	-0.056763	0.00946	-0.029755	-0.055084	0.051422	-0.012817	-0.025482	0.013275	-0.06134	-0.006409	-0.000916	-0.005188
23.791	0.003967	-0.076599	0.078125	-0.00885	0.006714	0.005646	0.13473	-0.007172	0.079041	0.005951	-0.15305	0.010681	-0.17792	0.032349	0.012817	-0.050354	-0.16373	-0.062714	-0.10788	0.045166	-0.35736	0.13534	-0.070801	0.14435	0.07019	-0.008545	0.25726	0.007019	0.3566	-0.036163	-0.007172	0.003662
23.792	0.071106	-0.04425	0.15335	0.013733	0.007019	0.006256	0.1535	-0.006104	0.086823	0.081177	-0.10498	0.000305	-0.50461	-0.012817	0.091248	-0.031586	-0.16129	-0.066833	-0.071716	0.008392	-0.23514	0.12863	-0.09491	0.215	0.058289	-0.001678	0.34882	0.005646	0.056458	-0.037994	-0.002441	-0.008087
23.793	0.06546	-0.025787	0.22919	0.005646	0.00061	0.009766	0.17624	0.00061	0.065155	0.10635	-0.067902	0.009918	-0.17838	-0.078125	0.072479	-0.034485	-0.12024	-0.072327	-0.22736	0.021515	0.18951	0.25116	-0.006866	0.15457	0.018463	-0.00473	0.28824	0.022583	0.018616	-0.03479	-0.000916	-0.014343
23.794	-0.028839	-0.027008	0.20554	-0.011292	-0.008087	-0.002441	0.20355	-0.006866	0.006561	-0.040741	0.088959	0.001221	0.17395	-0.17242	0.052185	-0.017395	-0.081329	-0.082092	-0.40451	0.04776	0.18082	0.15472	-0.021057	0.082703	0.027618	-0.012665	0.36331	0.010376	0.38071	-0.025482	-0.000305	-0.014648
23.795	-0.019379	-0.063019	0.12207	-0.011139	0.000153	0.00351	0.22461	0.005798	-0.021667	-0.18005	0.18341	0.005646	0.17136	-0.20371	0.048065	-0.006561	-0.045471	-0.093536	-0.47974	-0.020905	0.069122	0.090027	-0.016174	0.068817	0.014648	-0.007324	0.055389	0.015259	0.30441	-0.036011	-0.001221	-0.019226
23.796	-0.003357	-0.02182	0.17578	0.003967	0.000763	0.003357	0.20508	0.000916	-0.015106	-0.10773	0.11169	0.013428	-0.045166	-0.094757	0.095215	0.001373	-0.039215	-0.16647	-0.45319	-0.040894	0.063019	0.002747	-0.004578	0.085144	0.018005	-0.005188	-0.009003	0.011292	-0.18509	-0.038605	-0.005188	-0.016022
23.797	0.003357	-0.005341	0.21301	0.023956	-0.003357	0.036621	0.20172	0.009155	-0.006409	-0.054626	0.040894	-0.001678	0.14175	-0.04364	0.10696	0.010223	-0.03418	-0.084076	0.098877	-0.050964	0.033417	-0.096283	0.01358	0.084076	0.016632	-0.001373	0.055084	0.023193	-0.91995	-0.04425	-0.002899	-0.019531
23.798	0.000153	-0.010681	0.10834	0.012817	-0.012665	0.01358	0.21591	0.005646	-0.001526	-0.04364	-0.083771	0.007935	0.20447	-0.036011	0.085449	0.011902	-0.020905	-0.11627	0.39719	-0.060425	0.016022	-0.093231	0.00412	0.01297	0.009155	-0.003052	-0.055237	0.014191	-0.39871	0.016174	-0.001678	-0.01709
23.799	-0.003357	-0.018463	0.066833	0.001831	0.003662	0.011749	0.21652	-0.002899	0.000916	-0.052032	-0.078583	0.006866	0.2153	-0.000305	0.14038	0.007629	-0.015564	-0.16876	0.83939	-0.039673	-0.000153	-0.057831	-0.00351	-0.052185	0.016632	0.000153	0.022583	0.015411	-0.074768	0.054626	-0.001831	-0.019531
23.8	-0.000153	-0.052643	0.064392	0.010376	0.007019	0.016174	0.21027	0.005493	-0.001373	-0.02594	-0.022736	0	-0.19028	0.030975	0.18097	0.008087	-0.010529	-0.20004	0.64224	0.063629	0.005798	-0.052795	0.006409	-0.048981	0.016022	-0.006104	-0.00351	0.011597	-0.20142	0.090637	-0.000458	-0.012817
23.801	-0.002747	-0.007629	0.073547	0.011292	-0.002594	0.00824	0.22324	0.012207	0.005341	0.000305	0.032349	0.00412	-0.39536	0.051727	0.083618	-0.002441	-0.007172	-0.25162	0.087738	0.045776	-0.004578	-0.034637	-0.011292	-0.056152	0.013733	-0.010376	-0.1828	0.016327	-0.33676	0.13153	-0.001678	-0.004578
23.802	-0.000458	0.033112	0.096436	-0.00473	-0.001221	-0.004883	0.22201	0.007782	0.017242	-0.042114	0.048676	-0.005341	0.021362	0.089722	-0.02594	0.011444	-0.00824	-0.16586	-0.3154	-0.042725	-0.00061	-0.055084	-0.051575	-0.065613	0.010681	-0.008698	-0.23712	0.012665	-0.25101	0.097961	-0.000458	-0.003357
23.803	0.006409	0.05661	0.14053	-0.003662	0.006409	-0.048065	0.24368	0.010986	0.010529	-0.072479	0.054169	-0.005798	-0.033722	0.095825	0.19669	0.002747	-0.006714	-0.10117	-0.063934	-0.17212	-0.003357	-0.029449	-0.052032	-0.046844	0.026398	-0.006409	-0.22003	0.013428	0.62897	0.059509	-0.002289	-0.003967
23.804	0.001678	0.051117	0.11551	0.005798	0.006561	-0.048065	0.23025	0.003662	0.010071	-0.037689	0.036469	0.007782	0.088043	0.040588	-0.38147	-0.00351	0.012207	-0.12039	0.071411	-0.071869	-0.017853	-0.028687	-0.02182	-0.003662	0.019226	-0.003662	-0.13184	0.012665	0.48721	-0.006866	0	0.00351
23.805	0	0.008698	0.035706	0.018616	0.013885	-0.039825	0.24063	0.003815	0.006256	-0.032349	0.068512	0.000305	-0.16922	-0.014343	0.10864	0.00061	0.018158	-0.14603	0.19302	-0.006561	-0.059967	-0.031586	-0.009918	-0.029297	0.021362	-0.011902	-0.052185	0.008545	0.15976	-0.020752	-0.003052	0.006866
23.806	0.000153	-0.009003	-0.10086	0.009918	0.006409	0.004425	0.23041	0.015259	0.001526	-0.098572	0.001221	0.005341	-0.11414	-0.048676	0.052795	-0.010681	0.02655	-0.13214	0.10529	0.13626	-0.14679	-0.045929	0.00473	-0.035858	0.009613	-0.008545	-0.012512	0.013428	-0.040436	0.010529	0.00061	0.002441
23.807	0.000305	0.037842	-0.0383	-0.013275	0.000305	0.037994	0.26169	-0.000763	0.010834	-0.095215	0.003967	0.006561	0.15854	-0.057068	-0.087128	-0.010071	0.041199	-0.13611	-0.032959	0.24338	-0.21133	-0.049591	0.028076	0.002899	0.021973	-0.012207	-0.003357	0.011902	-0.059967	0.009918	-0.002899	-0.001984
23.808	-0.002136	0.026093	0.014496	0.001831	-0.027466	0.018768	0.2594	0.015717	-0.011292	-0.063934	0.013733	-0.002136	0.093231	-0.025482	0.47165	0.005341	0.042725	-0.12131	-0.14679	0.27863	-0.31937	-0.037231	0.032349	0.086212	0.021667	-0.009155	0.013733	0.014038	0.04715	0.026855	-0.003357	-0.002747
23.809	-0.002289	0.032349	-0.012665	0.013275	-0.068817	-0.000153	0.28671	-0.006409	0.002747	-0.033112	-0.086517	0.001526	-0.054474	0.045929	-0.4509	0.001526	0.058594	-0.10101	-0.10132	0.15076	-0.10574	-0.052948	0.037537	0.07431	0.029297	-0.009003	0.055847	0.00885	-0.055542	0.015411	-0.002289	-0.00351
23.81	0.004272	0.016632	-0.0177	0.016479	-0.057983	-0.020447	0.27191	0.004883	-0.004272	0.028839	0.1236	-0.002747	-0.10483	0.10757	-0.28198	-0.016022	0.11459	-0.103	0.009155	0.075836	0.16678	-0.15854	0.031281	0.006866	0.014191	-0.002899	0.02594	0.012207	0.011749	-0.013123	-0.00061	-0.002289
